<?xml version="1.0" encoding="utf-8"?>
<!-- Generator: Adobe Illustrator 27.6.1, SVG Export Plug-In . SVG Version: 6.00 Build 0)  -->
<svg version="1.1" xmlns="http://www.w3.org/2000/svg" xmlns:xlink="http://www.w3.org/1999/xlink" x="0px" y="0px"
	 viewBox="0 0 87.93 58.46" style="enable-background:new 0 0 87.93 58.46;" xml:space="preserve">
<style type="text/css">
	.st0{opacity:0.76;fill:url(#SVGID_1_);}
	.st1{fill:#E0E0E0;fill-opacity:0.65;}
	.st2{fill:#E6E7E8;fill-opacity:0.65;}
	.st3{fill:#D1D3D4;stroke:#BCBEC0;stroke-width:0.5;stroke-miterlimit:10;}
	.st4{fill:none;stroke:#F1F2F2;stroke-width:0.5;stroke-miterlimit:10;}
	.st5{fill:#E0E0E0;fill-opacity:0.3;stroke:#FFFFFF;stroke-width:0.5;stroke-miterlimit:10;}
	.st6{fill:#4D86B8;fill-opacity:0.8;stroke:#D1D3D4;stroke-width:0.25;stroke-miterlimit:10;}
	.st7{fill:#FACF48;fill-opacity:0.8;stroke:#D1D3D4;stroke-width:0.25;stroke-miterlimit:10;}
	.st8{fill:#F9CE48;fill-opacity:0.8;stroke:#D1D3D4;stroke-width:0.5;stroke-miterlimit:10;}
	.st9{fill:#4D86B8;fill-opacity:0.8;stroke:#D1D3D4;stroke-width:0.5;stroke-miterlimit:10;}
	.st10{fill:#4D86B8;fill-opacity:0.8;stroke:#D1D3D4;stroke-width:0.75;stroke-miterlimit:10;}
	.st11{fill:#4D86B9;fill-opacity:0.8;stroke:#D1D3D4;stroke-width:0.5;stroke-miterlimit:10;}
	.st12{fill:none;stroke:#D1D3D4;stroke-width:0.5;stroke-miterlimit:10;}
	.st13{fill:none;stroke:#939598;stroke-width:0.5;stroke-miterlimit:10;}
	.st14{fill:none;stroke:#4D86BA;stroke-width:0.25;stroke-miterlimit:10;}
	.st15{fill:#4D86BB;}
	.st16{fill:#4D86B8;fill-opacity:0.8;stroke:#FFFFFF;stroke-width:0.5;stroke-miterlimit:10;}
	.st17{fill:#F9CE48;fill-opacity:0.8;stroke:#FFFFFF;stroke-width:0.5;stroke-miterlimit:10;}
	.st18{fill:#4D86B9;fill-opacity:0.8;stroke:#FFFFFF;stroke-width:0.5;stroke-miterlimit:10;}
</style>
<g id="Layer_10">
</g>
<g id="epje_geel">
</g>
<g id="objective">
	<linearGradient id="SVGID_1_" gradientUnits="userSpaceOnUse" x1="39.1791" y1="45.0075" x2="46.561" y2="24.7259">
		<stop  offset="0" style="stop-color:#2484C6;stop-opacity:0.2"/>
		<stop  offset="1" style="stop-color:#2484C6;stop-opacity:0"/>
	</linearGradient>
	<polyline class="st0" points="80.16,36.95 61.66,53.19 6.97,28.95 	"/>
</g>
<g id="epje_3d">
</g>
<g id="epje_rood">
</g>
<g id="epje">
</g>
<g id="chip">
	<g>
		<polygon class="st1" points="25.92,6.01 25.54,12.5 80.16,36.95 80.61,30.24 		"/>
		<polygon class="st2" points="7.42,22.24 6.98,28.83 25.54,12.5 25.92,6.01 		"/>
		<polygon class="st3" points="61.66,53.19 6.97,28.95 25.47,12.72 80.16,36.95 		"/>
		<line class="st4" x1="61.62" y1="53.19" x2="62.07" y2="46.48"/>
		<polygon class="st5" points="62.11,46.48 7.42,22.24 25.92,6.01 80.61,30.24 		"/>
		<polygon class="st6" points="42.09,26.26 37.84,19.16 38.02,19.17 38.23,19.16 38.46,19.14 38.71,19.1 38.92,19.05 39.13,18.97 
			39.33,18.88 39.5,18.78 44.68,27.4 43.81,28.27 28.71,28.25 28.81,28.12 28.88,27.97 28.92,27.82 28.93,27.68 28.91,27.54 
			28.87,27.39 28.81,27.25 28.72,27.14 41.22,27.12 		"/>
		<polygon class="st7" points="24.96,18.66 42.09,26.26 44.68,27.4 64.9,36.36 64.73,36.43 64.57,36.5 64.4,36.6 64.26,36.71 
			64.13,36.83 64.03,36.96 63.96,37.07 63.91,37.18 43.81,28.27 41.22,27.12 24.04,19.51 24.18,19.44 24.33,19.37 24.49,19.28 
			24.63,19.17 24.75,19.05 24.84,18.93 24.91,18.8 		"/>
		
			<ellipse transform="matrix(3.861436e-03 -1 1 3.861436e-03 4.4154 41.4886)" class="st8" cx="23.03" cy="18.53" rx="1.24" ry="1.99"/>
		
			<ellipse transform="matrix(3.861436e-03 -1 1 3.861436e-03 19.9235 56.0256)" class="st9" cx="38.08" cy="18.01" rx="1.24" ry="1.99"/>
		
			<ellipse transform="matrix(3.861436e-03 -1 1 3.861436e-03 -0.9001 54.6278)" class="st10" cx="26.97" cy="27.77" rx="1.24" ry="1.99"/>
		
			<ellipse transform="matrix(3.861436e-03 -1 1 3.861436e-03 28.0968 103.2816)" class="st11" cx="65.89" cy="37.54" rx="1.24" ry="1.99"/>
		<line class="st12" x1="25.53" y1="12.72" x2="25.98" y2="6.01"/>
		<polygon class="st13" points="6.97,28.95 61.66,53.19 80.16,36.95 80.61,30.24 25.92,6.01 7.42,22.24 		"/>
		<line class="st12" x1="24.98" y1="27.83" x2="25.05" y2="26.07"/>
		<line class="st12" x1="29.02" y1="26.34" x2="28.92" y2="28.25"/>
		<line class="st12" x1="21.03" y1="18.48" x2="21.1" y2="16.87"/>
		<line class="st12" x1="25.06" y1="17.13" x2="24.98" y2="18.8"/>
		<line class="st12" x1="36.1" y1="17.88" x2="36.17" y2="16.32"/>
		<path class="st14" d="M40.05,29.04"/>
		<path class="st14" d="M62.73,39.1"/>
		<polygon class="st15" points="42.46,27.28 63.97,36.75 63.75,37.25 41.2,27.25 		"/>
		<polygon class="st15" points="42.19,26.16 64.22,35.8 64.04,36.33 42.73,26.92 		"/>
		<line class="st12" x1="40.13" y1="16.59" x2="40.07" y2="18.15"/>
		<line class="st12" x1="63.91" y1="37.41" x2="63.97" y2="35.85"/>
		<line class="st12" x1="67.93" y1="36.13" x2="67.87" y2="37.67"/>
		
			<ellipse transform="matrix(3.861436e-03 -1 1 3.861436e-03 0.7229 53.141)" class="st16" cx="27.03" cy="26.21" rx="1.24" ry="1.99"/>
		
			<ellipse transform="matrix(3.861436e-03 -1 1 3.861436e-03 6.0384 40.0018)" class="st17" cx="23.1" cy="16.97" rx="1.24" ry="1.99"/>
		
			<ellipse transform="matrix(3.861436e-03 -1 1 3.861436e-03 21.5465 54.5388)" class="st16" cx="38.15" cy="16.45" rx="1.24" ry="1.99"/>
		<path class="st14" d="M42.11,26.24"/>
		<path class="st14" d="M64.31,36.08"/>
		
			<ellipse transform="matrix(3.861436e-03 -1 1 3.861436e-03 29.7198 101.7948)" class="st18" cx="65.95" cy="35.98" rx="1.24" ry="1.99"/>
	</g>
</g>
<g id="pump">
</g>
<g id="np">
</g>
<g id="arrows">
</g>
<g id="syringe">
</g>
</svg>
